<svg version="1.1" id="Layer_1" xmlns="http://www.w3.org/2000/svg" xmlns:xlink="http://www.w3.org/1999/xlink" x="0px" y="0px"
	 width="100%" viewBox="0 0 140 168" enable-background="new 0 0 140 168" xml:space="preserve">
<path fill="#000000" opacity="1.000000" stroke="none" 
	d="
M75.000000,169.000000 
	C50.000000,169.000000 25.500000,169.000000 1.000000,169.000000 
	C1.000000,113.000000 1.000000,57.000000 1.000000,1.000000 
	C47.666668,1.000000 94.333336,1.000000 141.000000,1.000000 
	C141.000000,57.000000 141.000000,113.000000 141.000000,169.000000 
	C119.166664,169.000000 97.333336,169.000000 75.000000,169.000000 
M65.922142,46.984943 
	C74.182480,46.989964 82.443382,47.045444 90.702637,46.953434 
	C92.187569,46.936893 93.665726,46.312420 96.011177,46.084869 
	C101.233665,46.371441 106.456146,46.658012 111.551163,47.795074 
	C108.727425,47.869633 105.903709,48.008118 103.079956,48.008804 
	C76.268532,48.015327 49.457077,47.981937 22.645815,48.042122 
	C21.437424,48.044838 20.230797,48.833920 18.998198,50.004997 
	C18.988567,51.252777 18.978937,52.500557 18.446257,54.288265 
	C24.417038,54.844593 30.381920,55.791073 36.359745,55.881458 
	C52.027645,56.118355 67.702225,56.091610 83.372032,55.944832 
	C90.554268,55.877552 97.731552,55.281727 105.806587,54.971573 
	C114.893822,55.047802 114.957977,55.005577 114.856789,48.397648 
	C114.697243,47.916214 114.537689,47.434780 115.189789,47.085323 
	C117.645508,46.962597 120.101227,46.839874 122.556938,46.717152 
	C122.621101,46.188526 122.685265,45.659901 122.749420,45.131275 
	C116.707405,41.869629 110.633934,38.664680 104.630028,35.334316 
	C92.789154,28.766190 80.974976,22.149590 69.178658,15.501768 
	C66.841759,14.184810 65.053360,14.049410 62.411938,15.568758 
	C49.275940,23.124573 35.870186,30.209576 22.650295,37.622421 
	C18.403208,40.003906 14.433859,42.880707 10.337447,45.530903 
	C10.462561,46.166435 10.587674,46.801964 10.712788,47.437496 
	C19.103214,46.947533 27.493641,46.457569 36.273544,46.774002 
	C45.850315,46.778511 55.427082,46.783020 65.922142,46.984943 
M36.033150,125.940804 
	C36.033150,134.432999 36.033150,142.925186 36.033150,151.511536 
	C37.224949,151.293945 38.148182,151.125381 39.764194,151.067276 
	C40.697823,151.081100 41.631451,151.094910 43.502846,150.907181 
	C43.662056,149.612274 43.958366,148.317551 43.959969,147.022446 
	C43.985130,126.711769 43.972298,106.401039 44.082291,85.295204 
	C43.050632,83.534203 42.018974,81.773209 40.988346,79.178818 
	C41.337605,76.425400 41.686859,73.671974 42.816574,70.663094 
	C44.413799,70.451607 46.014938,70.031929 47.607624,70.061852 
	C59.394447,70.283356 71.179588,70.594330 82.943100,71.637306 
	C81.627403,73.094528 80.311714,74.551743 78.310745,76.230103 
	C77.854973,77.780495 77.399200,79.330894 76.224800,80.579910 
	C75.803398,78.627464 75.381996,76.675026 74.679276,74.140442 
	C71.204750,71.469124 69.685677,71.905357 67.242477,76.385567 
	C67.160698,81.562881 67.022812,86.740036 67.008064,91.917542 
	C66.969620,105.409798 67.014465,118.902382 66.937836,132.394333 
	C66.929344,133.889023 66.350342,135.380478 65.665634,136.140182 
	C65.442207,130.234268 65.070168,124.329453 65.025810,118.422188 
	C64.928879,105.513802 65.036110,92.603935 64.953888,79.695335 
	C64.943207,78.017929 64.306473,76.344505 63.679352,74.095299 
	C61.061874,71.544357 58.736454,71.077461 56.189426,75.316986 
	C56.181023,86.213699 56.172615,97.110420 56.017773,108.933357 
	C56.009335,121.687065 55.970375,134.440948 56.038551,147.194244 
	C56.045551,148.503906 56.693085,149.810150 57.518547,151.720062 
	C64.857361,152.339920 66.028397,151.115601 64.717300,144.971481 
	C65.808510,144.290009 66.899719,143.608536 68.002312,143.840820 
	C68.002312,146.412704 68.002312,148.984589 68.002312,152.372986 
	C70.830505,151.796982 72.826256,151.390533 75.045639,151.459427 
	C75.364319,151.312973 75.682999,151.166519 76.637405,151.001129 
	C77.060577,150.980408 77.483757,150.959686 78.610390,151.244659 
	C81.020760,151.159302 83.431129,151.073929 86.296730,151.529663 
	C86.853508,149.823135 87.909660,148.111343 87.891724,146.410873 
	C87.644653,122.979599 87.249779,99.549873 86.700775,75.467415 
	C86.113029,74.002495 85.525291,72.537575 85.670113,71.008469 
	C87.440781,70.999603 89.211441,70.990738 90.981102,71.744240 
	C90.992775,74.090027 91.004448,76.435806 90.349991,79.294235 
	C89.897888,80.777748 89.061684,82.258934 89.052681,83.745132 
	C88.955208,99.843178 88.964188,115.942108 89.028328,132.040466 
	C89.033577,133.354965 89.657112,134.667007 89.987648,136.908249 
	C90.020607,140.925369 90.053566,144.942490 90.033035,149.705719 
	C90.655815,153.644104 92.877937,151.763870 95.285110,151.590775 
	C95.524696,150.875412 95.972687,150.160202 95.973259,149.444641 
	C95.986198,133.333267 95.950012,117.221855 95.972435,100.189186 
	C95.954636,97.123535 95.936844,94.057877 95.959976,90.327034 
	C95.933487,89.884010 95.906990,89.440987 95.937241,88.259598 
	C95.937241,86.903679 95.937241,85.547760 95.937241,84.056679 
	C107.354340,88.320671 113.961472,84.555367 117.294182,75.441063 
	C119.836769,68.487564 113.457405,57.735069 105.018044,56.989319 
	C79.378395,57.023907 53.738747,57.058491 27.358223,57.088131 
	C22.443884,58.605232 18.296976,61.256195 16.884674,66.412201 
	C15.552480,71.275757 14.279804,76.482475 18.315741,80.854408 
	C22.520741,85.409477 27.445873,87.517120 33.546070,84.491730 
	C35.332867,83.605560 37.173454,82.827843 39.046017,82.586510 
	C38.366863,83.734650 37.687710,84.882790 36.196766,86.362114 
	C36.186337,99.245941 36.175907,112.129761 36.033150,125.940804 
M45.023598,110.933418 
	C45.018105,123.300591 44.984024,135.667908 45.049496,148.034698 
	C45.056358,149.331131 45.651031,150.624435 46.770618,151.983627 
	C49.019691,151.685074 51.268764,151.386505 54.470352,150.937271 
	C54.647427,150.319122 54.978649,149.701157 54.979332,149.082809 
	C55.005264,125.520271 55.010689,101.957664 54.958530,78.395203 
	C54.956753,77.592651 54.335770,76.791473 53.697559,75.414070 
	C51.728863,72.284363 49.138775,71.866821 45.298714,74.189865 
	C45.254772,86.128815 45.210831,98.067764 45.023598,110.933418 
z"/>
<path fill="#4C1311" opacity="1.000000" stroke="none" 
	d="
M111.678635,46.944580 
	C106.456146,46.658012 101.233665,46.371441 95.106979,45.944866 
	C84.469223,45.906738 74.735664,46.008617 64.544601,45.999359 
	C54.686089,45.914688 45.285076,45.941147 35.884068,45.967606 
	C27.493641,46.457569 19.103214,46.947533 10.712788,47.437496 
	C10.587674,46.801964 10.462561,46.166435 10.337447,45.530903 
	C14.433859,42.880707 18.403208,40.003906 22.650295,37.622421 
	C35.870186,30.209576 49.275940,23.124573 62.411938,15.568758 
	C65.053360,14.049410 66.841759,14.184810 69.178658,15.501768 
	C80.974976,22.149590 92.789154,28.766190 104.630028,35.334316 
	C110.633934,38.664680 116.707405,41.869629 122.749420,45.131275 
	C122.685265,45.659901 122.621101,46.188526 122.556938,46.717152 
	C120.101227,46.839874 117.645508,46.962597 114.337440,46.912762 
	C112.882942,46.808327 112.280785,46.876453 111.678635,46.944580 
z"/>
<path fill="#4B1413" opacity="1.000000" stroke="none" 
	d="
M105.947906,57.069637 
	C113.457405,57.735069 119.836769,68.487564 117.294182,75.441063 
	C113.961472,84.555367 107.354340,88.320671 95.937241,84.056679 
	C95.937241,85.547760 95.937241,86.903679 95.505157,88.629379 
	C93.438881,88.999725 91.804680,89.000275 90.098846,88.572479 
	C90.097702,86.412621 90.168205,84.681099 90.425751,82.797073 
	C90.742043,82.189354 90.871284,81.734131 91.271378,81.163681 
	C91.366859,80.292824 91.191490,79.537209 91.016121,78.781593 
	C91.004448,76.435806 90.992775,74.090027 90.898956,70.963737 
	C89.982285,69.795906 89.149353,69.074875 88.312988,69.070885 
	C73.814972,69.001450 59.316254,68.985161 44.818840,69.101036 
	C43.886482,69.108490 42.963470,70.285568 42.036114,70.918556 
	C41.686859,73.671974 41.337605,76.425400 40.994164,79.586990 
	C40.999985,79.995163 41.018108,79.986298 40.684849,79.996109 
	C39.901337,80.666885 39.451080,81.327858 39.000813,81.994064 
	C39.000801,81.999298 38.989391,82.000427 38.989391,82.000427 
	C37.173454,82.827843 35.332867,83.605560 33.546070,84.491730 
	C27.445873,87.517120 22.520741,85.409477 18.315741,80.854408 
	C14.279804,76.482475 15.552480,71.275757 16.884674,66.412201 
	C18.296976,61.256195 22.443884,58.605232 27.954994,57.444763 
	C53.664776,57.862587 78.777779,57.931072 103.890823,57.946407 
	C104.576340,57.946827 105.262207,57.374748 105.947906,57.069637 
M30.917324,77.439972 
	C30.917324,77.439972 30.870621,77.055077 31.504763,77.069565 
	C32.955399,76.923347 34.406033,76.777130 35.856670,76.630913 
	C35.650005,75.415833 35.443340,74.200745 35.019123,72.518387 
	C35.042320,72.348152 35.065521,72.177910 35.809704,71.973999 
	C36.206696,70.865776 36.903843,69.748215 36.869770,68.653404 
	C36.853558,68.132469 35.315479,67.779259 34.693275,67.132263 
	C33.310822,65.694740 32.234577,63.082230 30.734722,62.846031 
	C28.526720,62.498314 25.827971,63.381508 23.754753,64.507347 
	C20.683416,66.175201 20.108057,69.049484 21.959379,71.693436 
	C22.031067,72.411003 22.102753,73.128578 21.603863,74.251114 
	C21.689381,77.918251 23.323839,79.321396 27.786816,78.975662 
	C28.847216,78.591896 29.907616,78.208130 30.917324,77.439972 
M110.633560,70.389160 
	C113.006821,67.406487 110.380211,66.591782 108.497322,65.437378 
	C105.484070,63.589939 102.894005,62.667236 99.214363,65.009949 
	C95.077904,67.643501 93.359283,73.526321 96.717194,77.240166 
	C98.710281,79.444519 100.943214,78.763176 103.510666,78.891151 
	C109.817680,79.205566 112.277901,76.982269 110.633560,70.389160 
z"/>
<path fill="#4E1918" opacity="1.000000" stroke="none" 
	d="
M53.517838,151.087952 
	C51.268764,151.386505 49.019691,151.685074 46.426010,151.492462 
	C46.015404,137.336243 45.949402,123.671211 45.968044,109.543747 
	C46.049179,97.274261 46.045666,85.467194 46.042156,73.660126 
	C49.138775,71.866821 51.728863,72.284363 53.753517,76.162766 
	C53.825207,91.521935 53.886490,106.132561 53.841007,120.742851 
	C53.809517,130.858109 53.630779,140.972931 53.517838,151.087952 
z"/>
<path fill="#470F0C" opacity="1.000000" stroke="none" 
	d="
M78.996017,76.008965 
	C80.311714,74.551743 81.627403,73.094528 82.968109,71.288048 
	C82.993111,70.938789 82.935089,70.971939 83.284775,71.004684 
	C83.868103,71.022087 84.101746,71.006737 84.490250,70.979660 
	C84.645119,70.967949 84.937546,71.072662 84.937546,71.072662 
	C85.525291,72.537575 86.113029,74.002495 86.471832,76.047768 
	C86.109085,101.414940 85.975288,126.201752 85.841499,150.988571 
	C83.431129,151.073929 81.020760,151.159302 78.312614,150.737793 
	C77.998550,149.511368 77.982262,148.791794 77.974991,147.618835 
	C77.625549,144.070770 77.267097,140.976089 76.937408,137.480469 
	C77.302261,131.403946 77.638351,125.728378 77.986870,119.697388 
	C78.028900,118.869118 78.058502,118.396255 78.462296,117.716248 
	C78.889656,103.675720 78.942833,89.842339 78.996017,76.008965 
z"/>
<path fill="#491310" opacity="1.000000" stroke="none" 
	d="
M64.039085,144.902817 
	C66.028397,151.115601 64.857361,152.339920 57.342026,150.946091 
	C57.077282,136.116745 56.989063,122.061363 56.987541,107.543839 
	C57.059486,96.396843 57.044735,85.711998 57.029987,75.027153 
	C58.736454,71.077461 61.061874,71.544357 63.811287,74.877594 
	C64.026833,97.442108 64.110443,119.224335 64.132202,141.392090 
	C64.059929,142.819336 64.049507,143.861084 64.039085,144.902817 
z"/>
<path fill="#460E0C" opacity="1.000000" stroke="none" 
	d="
M67.990189,76.061371 
	C69.685677,71.905357 71.204750,71.469124 74.799423,74.921112 
	C74.887047,100.795876 74.854530,125.889969 74.822006,150.984070 
	C72.826256,151.390533 70.830505,151.796982 68.002312,152.372986 
	C68.002312,148.984589 68.002312,146.412704 68.006363,142.920486 
	C68.003677,120.020561 67.996933,98.040962 67.990189,76.061371 
z"/>
<path fill="#470E0C" opacity="1.000000" stroke="none" 
	d="
M114.901016,48.985390 
	C114.957977,55.005577 114.893822,55.047802 105.117615,54.607697 
	C101.787514,54.163097 99.146614,54.021343 96.505211,54.011108 
	C70.659958,53.910976 44.814621,53.832775 18.969307,53.748337 
	C18.978937,52.500557 18.988567,51.252777 19.469635,49.558701 
	C51.594387,49.070068 83.247704,49.027729 114.901016,48.985390 
z"/>
<path fill="#501B1A" opacity="1.000000" stroke="none" 
	d="
M42.565079,151.108734 
	C41.631451,151.094910 40.697823,151.081100 39.414742,150.617249 
	C38.367401,147.385544 37.243439,144.631332 37.061775,141.816330 
	C36.701584,136.235092 36.861343,130.620300 36.873390,124.553940 
	C36.963245,111.402649 36.985901,98.716797 37.008560,86.030937 
	C37.687710,84.882790 38.366863,83.734650 39.017704,82.293472 
	C38.989391,82.000427 39.000801,81.999298 39.309853,81.913086 
	C40.085304,81.213341 40.551708,80.599823 41.018108,79.986298 
	C41.018108,79.986298 40.999985,79.995163 40.993652,80.003685 
	C42.018974,81.773209 43.050632,83.534203 43.595726,85.804855 
	C42.994751,88.460876 42.790062,90.606819 42.780018,92.753670 
	C42.689014,112.205269 42.632027,131.657028 42.565079,151.108734 
z"/>
<path fill="#4B1313" opacity="1.000000" stroke="none" 
	d="
M90.170486,89.000824 
	C91.804680,89.000275 93.438881,88.999725 95.476784,88.998566 
	C95.906990,89.440987 95.933487,89.884010 95.552727,90.760330 
	C94.763290,92.861687 94.060226,94.527695 94.049469,96.198158 
	C93.959999,110.096115 94.267754,124.003632 93.818748,137.887650 
	C93.698219,141.614639 91.390312,145.270889 90.086533,148.959610 
	C90.053566,144.942490 90.020607,140.925369 90.016312,135.977417 
	C90.086815,119.697990 90.128654,104.349403 90.170486,89.000824 
z"/>
<path fill="#94726F" opacity="1.000000" stroke="none" 
	d="
M86.069115,151.259125 
	C85.975288,126.201752 86.109085,101.414940 86.567017,76.373947 
	C87.249779,99.549873 87.644653,122.979599 87.891724,146.410873 
	C87.909660,148.111343 86.853508,149.823135 86.069115,151.259125 
z"/>
<path fill="#8D6560" opacity="1.000000" stroke="none" 
	d="
M18.707783,54.018303 
	C44.814621,53.832775 70.659958,53.910976 96.505211,54.011108 
	C99.146614,54.021343 101.787514,54.163097 104.669861,54.584709 
	C97.731552,55.281727 90.554268,55.877552 83.372032,55.944832 
	C67.702225,56.091610 52.027645,56.118355 36.359745,55.881458 
	C30.381920,55.791073 24.417038,54.844593 18.707783,54.018303 
z"/>
<path fill="#A48C8C" opacity="1.000000" stroke="none" 
	d="
M74.933823,151.221741 
	C74.854530,125.889969 74.887047,100.795876 74.940079,75.212173 
	C75.381996,76.675026 75.803398,78.627464 76.602280,81.202423 
	C76.992455,85.915291 77.005150,90.005661 76.839035,94.474777 
	C76.454590,102.183960 76.167694,109.514008 76.133316,116.845245 
	C76.128319,117.911537 77.330742,118.983475 77.974449,120.052803 
	C77.638351,125.728378 77.302261,131.403946 76.586159,137.733307 
	C76.138641,142.251556 76.071129,146.116043 76.003235,150.240402 
	C76.002472,150.673553 76.002083,150.846802 76.001686,151.020065 
	C75.682999,151.166519 75.364319,151.312973 74.933823,151.221741 
z"/>
<path fill="#B49C9A" opacity="1.000000" stroke="none" 
	d="
M114.878906,48.691521 
	C83.247704,49.027729 51.594387,49.070068 19.482210,49.184570 
	C20.230797,48.833920 21.437424,48.044838 22.645815,48.042122 
	C49.457077,47.981937 76.268532,48.015327 103.079956,48.008804 
	C105.903709,48.008118 108.727425,47.869633 111.614899,47.369827 
	C112.280785,46.876453 112.882942,46.808327 113.931610,46.846771 
	C114.537689,47.434780 114.697243,47.916214 114.878906,48.691521 
z"/>
<path fill="#410F10" opacity="1.000000" stroke="none" 
	d="
M90.059784,149.332672 
	C91.390312,145.270889 93.698219,141.614639 93.818748,137.887650 
	C94.267754,124.003632 93.959999,110.096115 94.049469,96.198158 
	C94.060226,94.527695 94.763290,92.861687 95.532265,91.092926 
	C95.936844,94.057877 95.954636,97.123535 95.587936,100.867966 
	C95.134384,103.373528 95.014656,105.200005 95.004280,107.027115 
	C94.921066,121.689056 94.858498,136.351120 94.789604,151.013138 
	C92.877937,151.763870 90.655815,153.644104 90.059784,149.332672 
z"/>
<path fill="#B69497" opacity="1.000000" stroke="none" 
	d="
M67.616333,76.223465 
	C67.996933,98.040962 68.003677,120.020561 68.000671,142.463608 
	C66.899719,143.608536 65.808510,144.290009 64.378189,144.937149 
	C64.049507,143.861084 64.059929,142.819336 64.480331,141.305084 
	C65.272194,139.512848 65.654060,138.193146 66.035934,136.873444 
	C66.350342,135.380478 66.929344,133.889023 66.937836,132.394333 
	C67.014465,118.902382 66.969620,105.409798 67.008064,91.917542 
	C67.022812,86.740036 67.160698,81.562881 67.616333,76.223465 
z"/>
<path fill="#B29093" opacity="1.000000" stroke="none" 
	d="
M105.482971,57.029480 
	C105.262207,57.374748 104.576340,57.946827 103.890823,57.946407 
	C78.777779,57.931072 53.664776,57.862587 28.325432,57.447235 
	C53.738747,57.058491 79.378395,57.023907 105.482971,57.029480 
z"/>
<path fill="#805D5E" opacity="1.000000" stroke="none" 
	d="
M85.303833,71.040565 
	C84.937546,71.072662 84.645119,70.967949 84.322495,70.782295 
	C83.644936,70.721741 83.290016,70.846840 82.935089,70.971939 
	C82.935089,70.971939 82.993111,70.938789 82.979187,70.907990 
	C71.179588,70.594330 59.394447,70.283356 47.607624,70.061852 
	C46.014938,70.031929 44.413799,70.451607 42.426346,70.790825 
	C42.963470,70.285568 43.886482,69.108490 44.818840,69.101036 
	C59.316254,68.985161 73.814972,69.001450 88.312988,69.070885 
	C89.149353,69.074875 89.982285,69.795906 90.899460,70.582550 
	C89.211441,70.990738 87.440781,70.999603 85.303833,71.040565 
z"/>
<path fill="#EAD7D5" opacity="1.000000" stroke="none" 
	d="
M53.994095,151.012604 
	C53.630779,140.972931 53.809517,130.858109 53.841007,120.742851 
	C53.886490,106.132561 53.825207,91.521935 53.906441,76.450554 
	C54.335770,76.791473 54.956753,77.592651 54.958530,78.395203 
	C55.010689,101.957664 55.005264,125.520271 54.979332,149.082809 
	C54.978649,149.701157 54.647427,150.319122 53.994095,151.012604 
z"/>
<path fill="#B0908F" opacity="1.000000" stroke="none" 
	d="
M65.850784,136.506805 
	C65.654060,138.193146 65.272194,139.512848 64.542191,140.919556 
	C64.110443,119.224335 64.026833,97.442108 63.951473,75.164558 
	C64.306473,76.344505 64.943207,78.017929 64.953888,79.695335 
	C65.036110,92.603935 64.928879,105.513802 65.025810,118.422188 
	C65.070168,124.329453 65.442207,130.234268 65.850784,136.506805 
z"/>
<path fill="#EBE4E1" opacity="1.000000" stroke="none" 
	d="
M43.033962,151.007965 
	C42.632027,131.657028 42.689014,112.205269 42.780018,92.753670 
	C42.790062,90.606819 42.994751,88.460876 43.538689,86.202423 
	C43.972298,106.401039 43.985130,126.711769 43.959969,147.022446 
	C43.958366,148.317551 43.662056,149.612274 43.033962,151.007965 
z"/>
<path fill="#C2A9A8" opacity="1.000000" stroke="none" 
	d="
M90.098846,88.572479 
	C90.128654,104.349403 90.086815,119.697990 90.019165,135.513382 
	C89.657112,134.667007 89.033577,133.354965 89.028328,132.040466 
	C88.964188,115.942108 88.955208,99.843178 89.052681,83.745132 
	C89.061684,82.258934 89.897888,80.777748 90.683060,79.037918 
	C91.191490,79.537209 91.366859,80.292824 90.981133,81.168297 
	C90.359589,81.841965 90.299149,82.395767 90.238708,82.949577 
	C90.168205,84.681099 90.097702,86.412621 90.098846,88.572479 
z"/>
<path fill="#BEA8A9" opacity="1.000000" stroke="none" 
	d="
M77.017853,94.096024 
	C77.005150,90.005661 76.992455,85.915291 76.961586,81.353104 
	C77.399200,79.330894 77.854973,77.780495 78.653381,76.119537 
	C78.942833,89.842339 78.889656,103.675720 78.420479,117.252602 
	C78.002220,112.838943 78.124969,108.676796 77.959175,104.526161 
	C77.820023,101.042473 77.344467,97.572220 77.017853,94.096024 
z"/>
<path fill="#A68E89" opacity="1.000000" stroke="none" 
	d="
M95.037354,151.301956 
	C94.858498,136.351120 94.921066,121.689056 95.004280,107.027115 
	C95.014656,105.200005 95.134384,103.373528 95.563263,101.328598 
	C95.950012,117.221855 95.986198,133.333267 95.973259,149.444641 
	C95.972687,150.160202 95.524696,150.875412 95.037354,151.301956 
z"/>
<path fill="#E3D3D3" opacity="1.000000" stroke="none" 
	d="
M56.900848,108.005989 
	C56.989063,122.061363 57.077282,136.116745 57.104446,150.645050 
	C56.693085,149.810150 56.045551,148.503906 56.038551,147.194244 
	C55.970375,134.440948 56.009335,121.687065 56.275150,108.470322 
	C56.532528,108.007294 56.900845,108.005989 56.900848,108.005989 
z"/>
<path fill="#E3CCCE" opacity="1.000000" stroke="none" 
	d="
M45.883396,110.006172 
	C45.949402,123.671211 46.015404,137.336243 46.027195,151.460236 
	C45.651031,150.624435 45.056358,149.331131 45.049496,148.034698 
	C44.984024,135.667908 45.018105,123.300591 45.274368,110.470329 
	C45.525139,110.007240 45.883396,110.006172 45.883396,110.006172 
z"/>
<path fill="#AD9692" opacity="1.000000" stroke="none" 
	d="
M36.602661,86.196526 
	C36.985901,98.716797 36.963245,111.402649 36.713242,124.551315 
	C36.485893,125.014122 36.165482,125.013588 36.165482,125.013588 
	C36.175907,112.129761 36.186337,99.245941 36.602661,86.196526 
z"/>
<path fill="#DCC6C5" opacity="1.000000" stroke="none" 
	d="
M45.968044,109.543747 
	C45.883396,110.006172 45.525139,110.007240 45.346016,110.006973 
	C45.210831,98.067764 45.254772,86.128815 45.670433,73.924995 
	C46.045666,85.467194 46.049179,97.274261 45.968044,109.543747 
z"/>
<path fill="#B6A39F" opacity="1.000000" stroke="none" 
	d="
M36.099316,125.477196 
	C36.165482,125.013588 36.485893,125.014122 36.646046,125.016747 
	C36.861343,130.620300 36.701584,136.235092 37.061775,141.816330 
	C37.243439,144.631332 38.367401,147.385544 39.068352,150.562027 
	C38.148182,151.125381 37.224949,151.293945 36.033150,151.511536 
	C36.033150,142.925186 36.033150,134.432999 36.099316,125.477196 
z"/>
<path fill="#DACDCC" opacity="1.000000" stroke="none" 
	d="
M56.987541,107.543839 
	C56.900845,108.005989 56.532528,108.007294 56.348370,108.007217 
	C56.172615,97.110420 56.181023,86.213699 56.609707,75.172073 
	C57.044735,85.711998 57.059486,96.396843 56.987541,107.543839 
z"/>
<path fill="#FFFFFF" opacity="1.000000" stroke="none" 
	d="
M65.002106,46.110493 
	C74.735664,46.008617 84.469223,45.906738 94.674896,45.886745 
	C93.665726,46.312420 92.187569,46.936893 90.702637,46.953434 
	C82.443382,47.045444 74.182480,46.989964 65.463448,46.716972 
	C65.004753,46.449005 65.002106,46.110493 65.002106,46.110493 
z"/>
<path fill="#FFFDFD" opacity="1.000000" stroke="none" 
	d="
M64.544601,45.999359 
	C65.002106,46.110493 65.004753,46.449005 65.004303,46.618271 
	C55.427082,46.783020 45.850315,46.778511 36.078804,46.370804 
	C45.285076,45.941147 54.686089,45.914688 64.544601,45.999359 
z"/>
<path fill="#FFFFFF" opacity="1.000000" stroke="none" 
	d="
M76.319550,151.010590 
	C76.002083,150.846802 76.002472,150.673553 76.316711,150.187897 
	C77.075699,149.274399 77.520828,148.673309 77.965958,148.072220 
	C77.982262,148.791794 77.998550,149.511368 77.960884,150.584961 
	C77.483757,150.959686 77.060577,150.980408 76.319550,151.010590 
z"/>
<path fill="#552525" opacity="1.000000" stroke="none" 
	d="
M110.605362,70.669914 
	C112.277901,76.982269 109.817680,79.205566 103.510666,78.891151 
	C100.943214,78.763176 98.710281,79.444519 96.717194,77.240166 
	C93.359283,73.526321 95.077904,67.643501 99.214363,65.009949 
	C102.894005,62.667236 105.484070,63.589939 108.497322,65.437378 
	C110.380211,66.591782 113.006821,67.406487 110.605362,70.669914 
z"/>
<path fill="#511F1F" opacity="1.000000" stroke="none" 
	d="
M35.236675,72.985664 
	C35.443340,74.200745 35.650005,75.415833 35.856670,76.630905 
	C34.406033,76.777130 32.955399,76.923347 30.817495,77.025406 
	C29.097336,77.298294 28.064445,77.615326 27.039515,78.179291 
	C27.047476,78.426216 27.042786,78.920303 27.042786,78.920303 
	C23.323839,79.321396 21.689381,77.918251 22.074924,74.082336 
	C22.545986,73.913559 22.910597,74.016434 23.312439,73.949928 
	C23.468426,72.252068 23.222570,70.620720 22.717331,69.145790 
	C22.253990,69.860123 22.050034,70.418037 21.846075,70.975945 
	C20.108057,69.049484 20.683416,66.175201 23.754753,64.507347 
	C25.827971,63.381508 28.526720,62.498314 30.734722,62.846031 
	C32.234577,63.082230 33.310822,65.694740 34.693275,67.132263 
	C35.315479,67.779259 36.853558,68.132469 36.869770,68.653404 
	C36.903843,69.748215 36.206696,70.865776 35.373062,71.616310 
	C34.836876,70.608253 34.737328,69.957886 34.637775,69.307518 
	C34.334103,69.415131 34.030426,69.522736 33.726749,69.630348 
	C34.230057,70.748787 34.733368,71.867226 35.236675,72.985664 
M30.311218,67.004906 
	C30.765730,66.926910 31.220243,66.848907 31.674755,66.770912 
	C31.665228,66.621056 31.655699,66.471207 31.646172,66.321350 
	C29.956083,66.321350 28.265995,66.321350 26.575905,66.321350 
	C26.579536,66.522751 26.583168,66.724159 26.586800,66.925560 
	C27.546520,66.925560 28.506239,66.925560 30.311218,67.004906 
z"/>
<path fill="#000000" opacity="1.000000" stroke="none" 
	d="
M22.910597,74.016434 
	C22.910597,74.016434 22.545986,73.913559 22.360212,73.879852 
	C22.102753,73.128578 22.031067,72.411003 21.902727,71.334686 
	C22.050034,70.418037 22.253990,69.860123 22.727833,69.565071 
	C22.968679,71.224098 22.939638,72.620262 22.910597,74.016434 
z"/>
<path fill="#E1C7C5" opacity="1.000000" stroke="none" 
	d="
M35.127899,72.752029 
	C34.733368,71.867226 34.230057,70.748787 33.726749,69.630348 
	C34.030426,69.522736 34.334103,69.415131 34.637775,69.307518 
	C34.737328,69.957886 34.836876,70.608253 35.012573,71.633148 
	C35.065521,72.177910 35.042320,72.348152 35.127899,72.752029 
z"/>
<path fill="#000000" opacity="1.000000" stroke="none" 
	d="
M40.684849,79.996109 
	C40.551708,80.599823 40.085304,81.213341 39.309860,81.907852 
	C39.451080,81.327858 39.901337,80.666885 40.684849,79.996109 
z"/>
<path fill="#000000" opacity="1.000000" stroke="none" 
	d="
M27.414801,78.947983 
	C27.042786,78.920303 27.047476,78.426216 27.432854,78.211349 
	C28.868158,77.939102 29.918085,77.881737 30.968014,77.824364 
	C29.907616,78.208130 28.847216,78.591896 27.414801,78.947983 
z"/>
<path fill="#E6DADA" opacity="1.000000" stroke="none" 
	d="
M30.942669,77.632172 
	C29.918085,77.881737 28.868158,77.939102 27.424892,77.964417 
	C28.064445,77.615326 29.097336,77.298294 30.500423,77.018166 
	C30.870621,77.055077 30.917324,77.439972 30.942669,77.632172 
z"/>
<path fill="#4B1313" opacity="1.000000" stroke="none" 
	d="
M90.425758,82.797073 
	C90.299149,82.395767 90.359589,81.841965 90.710281,81.283539 
	C90.871284,81.734131 90.742043,82.189354 90.425758,82.797073 
z"/>
<path fill="#000000" opacity="1.000000" stroke="none" 
	d="
M76.839035,94.474777 
	C77.344467,97.572220 77.820023,101.042473 77.959175,104.526161 
	C78.124969,108.676796 78.002220,112.838943 78.046295,117.459755 
	C78.058502,118.396255 78.028900,118.869118 77.986870,119.697388 
	C77.330742,118.983475 76.128319,117.911537 76.133316,116.845245 
	C76.167694,109.514008 76.454590,102.183960 76.839035,94.474777 
z"/>
<path fill="#000000" opacity="1.000000" stroke="none" 
	d="
M77.974983,147.618835 
	C77.520828,148.673309 77.075699,149.274399 76.317093,149.928009 
	C76.071129,146.116043 76.138641,142.251556 76.557404,138.134247 
	C77.267097,140.976089 77.625549,144.070770 77.974983,147.618835 
z"/>
<path fill="#000000" opacity="1.000000" stroke="none" 
	d="
M83.284775,71.004684 
	C83.290016,70.846840 83.644936,70.721741 84.167625,70.794006 
	C84.101746,71.006737 83.868103,71.022087 83.284775,71.004684 
z"/>
<path fill="#AA9091" opacity="1.000000" stroke="none" 
	d="
M29.888588,66.965233 
	C28.506239,66.925560 27.546520,66.925560 26.586800,66.925560 
	C26.583168,66.724159 26.579536,66.522751 26.575905,66.321350 
	C28.265995,66.321350 29.956083,66.321350 31.646172,66.321350 
	C31.655699,66.471207 31.665228,66.621056 31.674755,66.770912 
	C31.220243,66.848907 30.765730,66.926910 29.888588,66.965233 
z"/>
<path fill="#F0D4D4" opacity="1.000000" stroke="none" 
	d="
M23.312439,73.949928 
	C22.939638,72.620262 22.968679,71.224098 22.987217,69.408646 
	C23.222570,70.620720 23.468426,72.252068 23.312439,73.949928 
z"/>
</svg>